<svg width="14" height="14" viewBox="0 0 14 14" fill="currentColor" xmlns="http://www.w3.org/2000/svg">
<path d="M9.59358 3.70801C9.75468 3.48387 10.0676 3.43274 10.2918 3.59376C10.5159 3.75486 10.5671 4.06776 10.4061 4.29199L7.43053 8.43547C6.92946 9.13324 5.9451 9.26902 5.27432 8.73234L3.68744 7.46185C3.47217 7.28935 3.4371 6.97522 3.60931 6.75972C3.78183 6.5441 4.09681 6.50908 4.31242 6.68159L5.89931 7.9511C6.1229 8.12997 6.45102 8.08504 6.61805 7.85247L9.59358 3.70801Z" fill="currentColor"/>
<path fill-rule="evenodd" clip-rule="evenodd" d="M6.62391 0.0498735C6.8705 -0.0164617 7.12926 -0.0164617 7.37585 0.0498735L11.8758 1.26177C12.5373 1.43987 12.9996 2.05958 12.9998 2.76955V7.76654L12.991 8.06438C12.9001 9.54383 12.1305 10.8421 10.8113 12.2127C10.0327 13.0217 8.8149 13.6004 7.16198 13.9813C7.08041 14 6.99656 14.0048 6.91394 13.9949L6.83094 13.9803L6.58778 13.9217C5.15777 13.565 4.07131 13.0501 3.33197 12.3543L3.18842 12.2127C1.93303 10.9084 1.17943 9.67474 1.02733 8.25774L1.00487 7.97259L0.999983 7.76654V2.76955C1.00012 2.10401 1.40615 1.51738 2.00192 1.29985L2.12399 1.26177L6.62391 0.0498735ZM7.11609 1.01568C7.03962 0.995098 6.96013 0.995098 6.88367 1.01568L2.38375 2.22659C2.1808 2.28124 2.00011 2.48859 1.99997 2.76955V7.74212L2.00387 7.92278L2.02047 8.14544C2.1383 9.2552 2.72801 10.2923 3.90911 11.5194C4.46543 12.0974 5.3948 12.5926 6.82605 12.95L6.99695 12.9911C8.52638 12.6314 9.51081 12.1218 10.0906 11.5194C11.4158 10.1427 11.9997 9.00006 11.9998 7.76654V2.76955C11.9996 2.48859 11.819 2.28124 11.616 2.22659L7.11609 1.01568Z" fill="currentColor"/>
</svg>
