<svg width="15" height="15" viewBox="0 0 15 15" fill="currentColor" xmlns="http://www.w3.org/2000/svg">
<path fill-rule="evenodd" clip-rule="evenodd" d="M9.28809 4.68945C9.52691 4.65741 9.76945 4.72191 9.96094 4.86816L10.0518 4.94824L10.1318 5.03906C10.2778 5.23034 10.3414 5.47242 10.3096 5.71094L10.2861 5.83008L9.46777 8.83008C9.39365 9.10159 9.19877 9.32127 8.94336 9.42871L8.83008 9.46777L5.83008 10.2861C5.51544 10.3719 5.17891 10.2823 4.94824 10.0518C4.71774 9.82112 4.62813 9.48452 4.71387 9.16992L5.53223 6.16992L5.57129 6.05664C5.6787 5.80122 5.89843 5.60639 6.16992 5.53223L9.16992 4.71387L9.28809 4.68945ZM6.48242 6.48242L5.71973 9.27832L8.51562 8.51562L9.27832 5.71973L6.48242 6.48242Z" fill="currentColor"/>
<path fill-rule="evenodd" clip-rule="evenodd" d="M7.5 1C11.0898 1 14 3.91022 14 7.5C14 11.0898 11.0898 14 7.5 14C3.91022 14 1 11.0898 1 7.5C1 3.91022 3.91022 1 7.5 1ZM7.5 2C4.46251 2 2 4.46251 2 7.5C2 10.5375 4.46251 13 7.5 13C10.5375 13 13 10.5375 13 7.5C13 4.46251 10.5375 2 7.5 2Z" fill="currentColor"/>
</svg>
