<svg width="18" height="18" viewBox="0 0 18 18" fill="currentColor" xmlns="http://www.w3.org/2000/svg">
<path d="M8.68633 3.04315L4.93638 4.08154C4.38501 4.23422 3.99995 4.76592 3.99995 5.3746V9.65722L4.00401 9.83374C4.06763 11.1526 4.70767 12.2764 5.8236 13.4689C6.43964 14.1272 7.38505 14.6069 8.65617 14.933L8.85931 14.9832C8.95004 15.0056 9.04431 15.006 9.13522 14.9844C10.5127 14.6579 11.5273 14.1623 12.1762 13.4689C13.3488 12.2157 13.9998 11.0329 13.9998 9.65722V5.3746C13.9998 4.76592 13.6147 4.23422 13.0634 4.08154L9.31342 3.04315C9.10779 2.98621 8.89197 2.98621 8.68633 3.04315Z" fill="currentColor"/>
<path d="M10.2313 6.85943C10.5849 6.43538 11.2163 6.37807 11.6405 6.7315C12.0646 7.08504 12.1218 7.71642 11.7684 8.14066L9.61901 10.7197C9.05434 11.3973 8.02887 11.444 7.40517 10.8203L6.29288 9.70705C5.90245 9.31652 5.90239 8.6835 6.29288 8.293C6.68338 7.90261 7.31643 7.9026 7.70693 8.293L8.4325 9.0176L10.2313 6.85943Z" fill="currentColor"/>
<path fill-rule="evenodd" clip-rule="evenodd" d="M8.30555 0.0899899C8.76056 -0.0299966 9.2392 -0.0299966 9.6942 0.0899899L14.9441 1.47474C16.1651 1.79692 16.9997 2.91137 16.9998 4.16611V9.87599C16.9997 12.0891 15.8829 13.9056 14.16 15.6591C13.0594 16.7791 11.4246 17.4992 9.41003 17.954C9.13491 18.0161 8.84866 18.0156 8.5741 17.9511L8.28993 17.8837L8.28114 17.8817C6.41238 17.4251 4.8857 16.7235 3.83979 15.6591C2.19878 13.989 1.11373 12.2706 1.00682 10.1621L1.00585 10.1484V10.1358L0.999986 9.9004V4.16611C1.00006 2.91137 1.83461 1.79692 3.05562 1.47474L8.30555 0.0899899ZM9.18347 2.02356C9.06304 1.99189 8.93672 1.99189 8.81629 2.02356L3.56636 3.4083C3.24381 3.49337 3.00003 3.79796 2.99996 4.16611V9.85158L3.00484 10.0606L3.02535 10.3232C3.16726 11.6295 3.87592 12.8415 5.26653 14.2568C5.9449 14.9472 7.06401 15.5245 8.75183 15.9374L8.99792 15.995C10.8235 15.5795 12.0209 14.9818 12.7332 14.2568C14.2935 12.6688 14.9997 11.3312 14.9998 9.87599V4.16611C14.9997 3.79796 14.7559 3.49337 14.4334 3.4083L9.18347 2.02356Z" fill="currentColor"/>
</svg>
