<svg width="18" height="18" viewBox="0 0 18 18" fill="currentColor" xmlns="http://www.w3.org/2000/svg">
<path d="M4 8.99609C4 8.44381 4.44772 7.99609 5 7.99609H13C13.5523 7.99609 14 8.44381 14 8.99609V12.9961C14 13.5484 13.5523 13.9961 13 13.9961H5C4.44772 13.9961 4 13.5484 4 12.9961V8.99609Z" fill="currentColor"/>
<path d="M9 8.99611C9.82843 8.99611 10.5 9.66768 10.5 10.4961C10.5 11.0511 10.198 11.5345 9.75 11.794V12.9961C9.75 13.4103 9.41421 13.7461 9 13.7461C8.58579 13.7461 8.25 13.4103 8.25 12.9961V11.794C7.802 11.5345 7.5 11.0511 7.5 10.4961C7.5 9.66768 8.17157 8.99611 9 8.99611Z" fill="currentColor"/>
<path fill-rule="evenodd" clip-rule="evenodd" d="M8.99707 1.00392C11.306 1.00942 13.2017 2.75602 13.4512 4.99611H15C16.1046 4.99611 17 5.89155 17 6.99611V14.9961C17 16.1007 16.1046 16.9961 15 16.9961H3C1.89543 16.9961 1 16.1007 1 14.9961V6.99611C1.00001 5.89155 1.89544 4.99611 3 4.99611H4.52148C4.77185 2.74551 6.68214 0.998678 8.99707 1.00392ZM3 14.9961H15V6.99611H3V14.9961ZM8.99219 3.00392C7.78542 3.00132 6.77787 3.85709 6.54492 4.99611H11.4297C11.1977 3.86212 10.1958 3.00677 8.99219 3.00392Z" fill="currentColor"/>
</svg>
