<svg width="14" height="14" viewBox="0 0 14 14" fill="currentColor" xmlns="http://www.w3.org/2000/svg">
<path d="M9 2.51562V3.46875C9 3.48577 8.99212 3.49974 8.98242 3.5H8.01758C8.00788 3.49974 8 3.48577 8 3.46875V2.51562C8 2.50711 8.00394 2.50013 8.00879 2.5H8.99121C8.99606 2.50013 9 2.50711 9 2.51562Z" fill="currentColor"/>
<path d="M11 2.51562V3.46875C11 3.48577 10.9921 3.49974 10.9824 3.5H10.0176C10.0079 3.49974 10 3.48577 10 3.46875V2.51562C10 2.50711 10.0039 2.50013 10.0088 2.5H10.9912C10.9961 2.50013 11 2.50711 11 2.51562Z" fill="currentColor"/>
<path fill-rule="evenodd" clip-rule="evenodd" d="M12 0.5C12.8284 0.5 13.5 1.17157 13.5 2V12C13.5 12.8284 12.8284 13.5 12 13.5H2C1.17157 13.5 0.5 12.8284 0.5 12V2C0.5 1.17157 1.17157 0.5 2 0.5H12ZM1.5 12C1.5 12.2761 1.72386 12.5 2 12.5H12C12.2761 12.5 12.5 12.2761 12.5 12V5H1.5V12ZM2 1.5C1.72386 1.5 1.5 1.72386 1.5 2V4H12.5V2C12.5 1.72386 12.2761 1.5 12 1.5H2Z" fill="currentColor"/>
</svg>
