<svg width="18" height="18" viewBox="0 0 18 18" fill="currentColor" xmlns="http://www.w3.org/2000/svg">
<path d="M4 5C4 4.44772 4.44772 4 5 4H13C13.5523 4 14 4.44772 14 5V13C14 13.5523 13.5523 14 13 14H5C4.44772 14 4 13.5523 4 13V5Z" fill="currentColor"/>
<path d="M6.84863 5.72363C7.72578 5.32006 8.82252 5.46046 9.55371 6.16309C10.2294 6.81251 10.4133 7.77865 10.084 8.58691L12.3906 11.0771C12.5366 11.2186 12.5368 11.4475 12.3896 11.5693L11.5303 12.3945C11.4024 12.5349 11.1646 12.5349 11.0186 12.3945L8.71191 9.9043C7.87221 10.2208 6.86616 10.0447 6.19043 9.39551C5.45923 8.69274 5.31249 7.63802 5.73242 6.79492L7.32324 8.32324L8.4375 7.25195L6.84863 5.72363Z" fill="currentColor"/>
<path fill-rule="evenodd" clip-rule="evenodd" d="M15 1C16.1046 1 17 1.89543 17 3V15C17 16.1046 16.1046 17 15 17H3C1.89543 17 1 16.1046 1 15V3C1 1.89543 1.89543 1 3 1H15ZM3 15H15V3H3V15Z" fill="currentColor"/>
</svg>
