<svg width="48" height="48" viewBox="0 0 48 48" fill="none" xmlns="http://www.w3.org/2000/svg">
<path d="M24.0007 15C22.3595 15 21.0291 16.3304 21.0291 17.9716V19H19.6898C18.7852 19 17.9932 19.6072 17.7584 20.4807L15.0697 30.4807C14.7281 31.7513 15.6853 33 17.0011 33H31.0002C32.3159 33 33.2732 31.7514 32.9316 30.4807L30.243 20.4807C30.0081 19.6072 29.2162 19 28.3116 19H26.9723V17.9716C26.9723 16.3304 25.6419 15 24.0007 15ZM21.0291 21H22H23.01V17.9905C23.01 17.4435 23.4535 17 24.0006 17C24.5476 17 24.9911 17.4435 24.9911 17.9905V21H26H26.9723H27.5911C28.0439 21 28.4402 21.3042 28.5572 21.7416L29.1612 24H18.8452L19.4447 21.7432C19.5611 21.305 19.9578 21 20.4112 21H21.0291ZM18.3138 26H29.6961L30.6967 29.7416C30.8666 30.3766 30.388 31 29.7307 31H18.2859C17.6292 31 17.1508 30.3779 17.3194 29.7432L18.3138 26Z" fill="currentColor"/>
</svg>
