<svg width="48" height="48" viewBox="0 0 48 48" fill="none" xmlns="http://www.w3.org/2000/svg">
<path d="M16.1862 16.8322C16.2734 15.7963 17.1396 15 18.1791 15H29.7813C30.8187 15 31.6839 15.7931 31.7738 16.8266L32.9922 30.8266C33.0939 31.9952 32.1727 33 30.9997 33H17.0001C15.8294 33 14.9089 31.9988 15.0072 30.8322L16.1862 16.8322ZM18.0768 17.9139L17.0396 29.9139C16.9891 30.498 17.4496 31 18.0359 31H29.9162C30.5039 31 30.9648 30.4957 30.9122 29.9103L29.8319 17.9103C29.7855 17.3949 29.3535 17 28.836 17H19.0731C18.5542 17 18.1215 17.3969 18.0768 17.9139ZM21.5 20.4C21.5 19.8477 21.0523 19.4 20.5 19.4C19.9477 19.4 19.5 19.8477 19.5 20.4C19.5 22.8661 21.5333 24.832 24 24.832C26.4667 24.832 28.5 22.8661 28.5 20.4C28.5 19.8477 28.0523 19.4 27.5 19.4C26.9477 19.4 26.5 19.8477 26.5 20.4C26.5 21.7248 25.3993 22.832 24 22.832C22.6007 22.832 21.5 21.7248 21.5 20.4Z" fill="currentColor"/>
</svg>
