<svg width="48" height="48" viewBox="0 0 48 48" fill="none" xmlns="http://www.w3.org/2000/svg">
<path d="M15 17C15 15.8954 15.8954 15 17 15H31C32.1046 15 33 15.8954 33 17V22.5C33 23.0523 32.5523 23.5 32 23.5C31.4477 23.5 31 23.0523 31 22.5V18C31 17.4477 30.5523 17 30 17L18 17C17.4477 17 17 17.4477 17 18V26C17 26.5523 17.4477 27 18 27H19.5C20.0523 27 20.5 27.4477 20.5 28C20.5 28.5523 20.0523 29 19.5 29H17C15.8954 29 15 28.1046 15 27V17ZM16.9043 31H20.1637V31.0006C20.1757 31.0002 20.1878 31 20.1999 31C20.7522 31 21.1999 31.4477 21.1999 32C21.1999 32.5523 20.7522 33 20.1999 33C20.1878 33 20.1757 32.9998 20.1637 32.9994V33H16.9043C16.352 33 15.9043 32.5523 15.9043 32C15.9043 31.4477 16.352 31 16.9043 31ZM26.4815 21.1382C26.5779 20.9724 26.8174 20.9724 26.9138 21.1382L28.8076 24.3956C28.8428 24.4563 28.9021 24.4994 28.9707 24.5143L32.6488 25.3122C32.8359 25.3528 32.9098 25.5801 32.7824 25.7229L30.2744 28.535C30.2277 28.5873 30.2052 28.6568 30.2122 28.7266L30.5914 32.478C30.6106 32.6687 30.417 32.8093 30.2417 32.7319L26.7986 31.2118C26.7343 31.1834 26.661 31.1834 26.5967 31.2118L23.1537 32.7319C22.9784 32.8093 22.7847 32.6687 22.804 32.478L23.1831 28.7266C23.1902 28.6568 23.1676 28.5873 23.121 28.535L20.6129 25.7229C20.4855 25.5801 20.5594 25.3528 20.7465 25.3122L24.4247 24.5143C24.4933 24.4994 24.5525 24.4563 24.5878 24.3956L26.4815 21.1382ZM26.7199 24L25.5884 25.9426L23.3912 26.4184L24.8891 28.0949L24.6626 30.3316L26.7199 29.425L28.7771 30.3316L28.5507 28.0949L30.0486 26.4184L27.8514 25.9426L26.7199 24Z" fill="currentColor"/>
</svg>
