<svg width="48" height="48" viewBox="0 0 48 48" fill="none" xmlns="http://www.w3.org/2000/svg">
<path d="M16.5215 16.6712C16.6822 15.7068 17.5166 15 18.4943 15H29.5057C30.4834 15 31.3178 15.7068 31.4785 16.6712L32.9728 25.6367C32.9909 25.7454 33 25.8554 33 25.9655V31C33 32.1046 32.1046 33 31 33H17C15.8954 33 15 32.1046 15 31V25.9655C15 25.8554 15.0091 25.7454 15.0272 25.6367L16.5215 16.6712ZM18.4392 17.6039L16.98 24.9H31.02L29.5608 17.6039C29.4673 17.1365 29.0569 16.8 28.5802 16.8H19.4198C18.9431 16.8 18.5327 17.1365 18.4392 17.6039ZM16.8 26.7V30.2C16.8 30.7523 17.2477 31.2 17.8 31.2H30.2C30.7523 31.2 31.2 30.7523 31.2 30.2V26.7H16.8ZM27.6 28.5C27.6 28.0029 28.0029 27.6 28.5 27.6C28.9971 27.6 29.4 28.0029 29.4 28.5V29.4C29.4 29.897 28.9971 30.3 28.5 30.3C28.0029 30.3 27.6 29.897 27.6 29.4V28.5ZM21.2929 21.7071C21.6834 22.0976 22.3166 22.0976 22.7071 21.7071L23 21.4142V23C23 23.5523 23.4477 24 24 24C24.5523 24 25 23.5523 25 23V21.4142L25.2929 21.7071C25.6834 22.0976 26.3166 22.0976 26.7071 21.7071C27.0976 21.3166 27.0976 20.6834 26.7071 20.2929L24.7071 18.2929C24.3166 17.9024 23.6834 17.9024 23.2929 18.2929L21.2929 20.2929C20.9024 20.6834 20.9024 21.3166 21.2929 21.7071Z" fill="currentColor"/>
</svg>
