<svg width="48" height="48" viewBox="0 0 48 48" fill="none" xmlns="http://www.w3.org/2000/svg">
<path d="M17 15C15.8954 15 15 15.8954 15 17V27C15 28.1046 15.8954 29 17 29H31C32.1046 29 33 28.1046 33 27V17C33 15.8954 32.1046 15 31 15H17ZM18 17H22.2004V17.0001C22.2004 17.5523 22.6481 18.0001 23.2004 18.0001H25.7004C26.2527 18.0001 26.7004 17.5523 26.7004 17.0001V17H30C30.5523 17 31 17.4477 31 18V26C31 26.5523 30.5523 27 30 27H18C17.4477 27 17 26.5523 17 26V18C17 17.4477 17.4477 17 18 17ZM17 31.0001C16.4477 31.0001 16 31.4478 16 32.0001C16 32.5523 16.4477 33.0001 17 33.0001H31C31.5522 33.0001 32 32.5523 32 32.0001C32 31.4478 31.5522 31.0001 31 31.0001H17Z" fill="currentColor"/>
</svg>
