<svg width="48" height="48" viewBox="0 0 48 48" fill="none" xmlns="http://www.w3.org/2000/svg">
<path d="M28.9354 21.1944C27.8041 21.6239 27 22.718 27 24V26C27 27.1254 27.6197 28.106 28.5364 28.6194C27.8077 29.5291 26.8103 30.2142 25.6646 30.5546C25.3896 30.2162 24.97 30 24.5 30H23.5C22.6716 30 22 30.6716 22 31.5C22 32.3284 22.6716 33 23.5 33H24.5C25.0897 33 25.6 32.6597 25.8451 32.1647C27.6801 31.6966 29.2408 30.5421 30.2374 28.9907C31.7833 28.8697 33 27.577 33 26V24C33 22.6749 32.1409 21.5505 30.9493 21.1533C30.5313 17.6866 27.5794 15 24 15C20.4206 15 17.4687 17.6866 17.0507 21.1533C15.8591 21.5505 15 22.6749 15 24V26C15 27.6569 16.3431 29 18 29C19.6569 29 21 27.6569 21 26V24C21 22.718 20.1959 21.6239 19.0646 21.1944C19.4498 18.816 21.5128 17 24 17C26.4872 17 28.5502 18.816 28.9354 21.1944ZM19 26C19 26.5523 18.5523 27 18 27C17.4477 27 17 26.5523 17 26V24C17 23.4477 17.4477 23 18 23C18.5523 23 19 23.4477 19 24V26ZM31 26C31 26.5523 30.5523 27 30 27C29.4477 27 29 26.5523 29 26V24C29 23.4477 29.4477 23 30 23C30.5523 23 31 23.4477 31 24V26Z" fill="currentColor"/>
</svg>
