<svg width="48" height="48" viewBox="0 0 48 48" fill="none" xmlns="http://www.w3.org/2000/svg">
<path d="M23.4356 14.0712L16.6856 15.8018C15.6931 16.0563 15 16.9425 15 17.957V25.0948L15.0073 25.389C15.1218 27.5871 16.2739 29.4601 18.2826 31.4477C19.3915 32.5449 21.0933 33.3443 23.3813 33.8879L23.747 33.9715C23.9103 34.0088 24.08 34.0095 24.2436 33.9736C26.7231 33.4294 28.5494 32.6033 29.7174 31.4477C31.8282 29.359 33 27.3877 33 25.0948V17.957C33 16.9425 32.3069 16.0563 31.3144 15.8018L24.5644 14.0712C24.1942 13.9763 23.8058 13.9763 23.4356 14.0712ZM16.889 18.5615C16.889 18.1044 17.199 17.7055 17.642 17.5925L23.6418 16.063C23.8039 16.0217 23.9738 16.0217 24.1359 16.063L30.1357 17.5925C30.5787 17.7055 30.8887 18.1044 30.8887 18.5615V25.1443C30.8887 26.7552 29.9602 28.3083 28.168 30.0716L28.0014 30.226C27.188 30.938 25.8676 31.5292 24.0364 31.9668L23.9933 31.9764C23.9238 31.992 23.8516 31.992 23.782 31.9766C21.8014 31.5086 20.4096 30.8585 19.6098 30.0716C17.8972 28.3867 16.9756 26.8969 16.8947 25.3587L16.8887 25.1146L16.889 18.5615ZM28.1594 22.4264C28.5455 22.0315 28.5384 21.3984 28.1435 21.0123C27.7486 20.6262 27.1155 20.6333 26.7294 21.0282L22.9999 24.8424L21.0483 22.8464C20.6621 22.4515 20.029 22.4444 19.6341 22.8305C19.2392 23.2166 19.2321 23.8497 19.6182 24.2446L22.2849 26.9719C22.4731 27.1643 22.7308 27.2728 22.9999 27.2728C23.269 27.2728 23.5268 27.1643 23.7149 26.9719L28.1594 22.4264Z" fill="currentColor"/>
</svg>
