<svg width="16" height="16" viewBox="0 0 16 16" fill="currentColor" xmlns="http://www.w3.org/2000/svg">
<path fill-rule="evenodd" clip-rule="evenodd" d="M10 1.625C10.9665 1.625 11.75 2.4085 11.75 3.375V4.375H13C14.1046 4.375 15 5.27043 15 6.375V12.375C15 13.4107 14.2128 14.262 13.2041 14.3643L13 14.375H3L2.7959 14.3643C1.85435 14.2688 1.1062 13.5207 1.01074 12.5791L1 12.375V6.375C1 5.27043 1.89543 4.375 3 4.375H4.25V3.375C4.25 2.40851 5.03351 1.62501 6 1.625H10ZM3 5.875C2.72386 5.875 2.5 6.09886 2.5 6.375V12.375C2.5 12.6511 2.72386 12.875 3 12.875H13C13.2761 12.875 13.5 12.6511 13.5 12.375V6.375C13.5 6.09886 13.2761 5.875 13 5.875H3ZM11 7.625C11.4142 7.62501 11.75 7.96079 11.75 8.375C11.75 8.78921 11.4142 9.12499 11 9.125H5C4.58579 9.125 4.25 8.78921 4.25 8.375C4.25 7.96079 4.58579 7.625 5 7.625H11ZM6 3.125C5.86194 3.12501 5.75 3.23694 5.75 3.375V4.375H10.25V3.375C10.25 3.23693 10.1381 3.125 10 3.125H6Z" fill="currentColor"/>
</svg>
