<svg width="16" height="16" viewBox="0 0 16 16" fill="currentColor" xmlns="http://www.w3.org/2000/svg">
<path d="M2.20399 2.20278C2.47562 1.93241 2.91601 1.93241 3.18763 2.20278L13.7963 12.7624C14.0679 13.0328 14.0679 13.4711 13.7963 13.7415C13.5247 14.0119 13.0843 14.0119 12.8126 13.7415L2.20399 3.18187C1.93237 2.9115 1.93237 2.47315 2.20399 2.20278Z" fill="currentColor"/>
<path d="M13.7961 2.25856C14.0677 2.52893 14.0677 2.96728 13.7961 3.23765L3.18736 13.7972C2.91574 14.0676 2.47534 14.0676 2.20372 13.7972C1.93209 13.5269 1.93209 13.0885 2.20372 12.8181L12.8124 2.25856C13.084 1.9882 13.5244 1.9882 13.7961 2.25856Z" fill="currentColor"/>
</svg>
